<svg width="40" height="50" viewBox="0 0 40 50" fill="none" xmlns="http://www.w3.org/2000/svg">
<path d="M20.2 0H20L0.299988 2.1V38.3L20 50L39.7 38.3V2.1L20.2 0V0ZM37.2 36.8L20 47L2.79999 36.8V22L19.9 32.2V34L8.19999 27V28.8L20 35.9V37.8L8.19999 30.8V32.6L20 39.6L31.9 32.5V24.9L37.2 21.7V36.8V36.8ZM37.1 19.8L32.4 22.6L30.2 23.9L19.9 17.8V19.6L28.7 24.9H28.6L28.4 25L27.1 25.7L19.8 21.4V23.2L25.6 26.6L24.2 27.5L19.9 24.9V26.7L22.8 28.4L19.9 30.1L2.89999 20L19.9 9.8L37.1 19.8V19.8ZM37.2 18L19.9 7.8L2.79999 18V4.4L20 2.6L37.2 4.4V18Z"/>
</svg>
